<?xml version="1.0" encoding="UTF-8"?>
<svg version="1.1" viewBox="0 0 1600 220" width="25" height="1280" xmlns="http://www.w3.org/2000/svg">
<path transform="translate(724, 293)" d="m0 0c0.662-9.57e-4 1.32-0.00191 2.01-0.0029 1.4-6.82e-4 2.8 0.00117 4.21 0.00534 2.15 0.00535 4.31 5.44e-5 6.46-0.00635 1.36 6.61e-4 2.72 0.00194 4.08 0.00391 1.87 0.00169 1.87 0.00169 3.77 0.00342 2.85 0.129 2.85 0.129 3.85 1.13 1.6 0.343 3.22 0.634 4.84 0.902 0.98 0.168 1.96 0.336 2.97 0.51 2.08 0.35 4.16 0.696 6.24 1.04 1.47 0.254 1.47 0.254 2.97 0.514 0.905 0.151 1.81 0.301 2.74 0.457 2.23 0.578 2.23 0.578 4.23 2.58 1.47 0.353 2.95 0.657 4.44 0.938 17.2 4.49 40.7 20.2 50.6 35.1v2h2v2h2c1.44 2.19 1.44 2.19 3 5 0.557 0.887 1.11 1.77 1.69 2.69 1.31 2.31 1.31 2.31 1.31 4.31h2c12.3 24.1 12.3 24.1 15 36 0.351 1.03 0.701 2.06 1.06 3.12 2.09 6.4 2.14 12.8 2.25 19.4 0.0208 1.02 0.0416 2.04 0.063 3.09 0.0432 2.16 0.0842 4.32 0.123 6.48 0.059 3.26 0.124 6.52 0.191 9.78 0.102 5.12 0.188 10.2 0.264 15.4 0.0391 2.5 0.0888 5 0.14 7.5 0.0192 1.36 0.0377 2.72 0.0552 4.07 0.0289 1.7 0.0289 1.7 0.0583 3.44-0.211 2.71-0.211 2.71-2.21 5.71-0.204 2.05-0.204 2.05-0.0625 4.25 0.105 5.42-0.171 10.1-2.44 15.1-1.34 3.29-1.75 5.3-2 8.75-0.312 4.3-1.42 7.13-3.5 10.9-0.34 2-0.673 4-1 6-0.964 2.35-1.97 4.68-3 7-0.673 2-1.34 4-2 6-0.797 2.21-1.61 4.42-2.44 6.62-0.411 1.11-0.822 2.21-1.25 3.35-1.32 3.02-1.32 3.02-2.79 4.98-1.68 2.24-2.64 4.55-3.69 7.12-1.5 3.44-3.36 6.66-5.21 9.92-0.561 1.01-0.561 1.01-1.13 2.04-2.56 4.55-5.42 8.74-8.49 13-0.707 1.31-1.4 2.64-2 4h-2c-0.0696 0.543-0.139 1.09-0.211 1.64-1.12 3.33-3.12 5.39-5.41 8.04-0.914 1.07-1.83 2.13-2.74 3.2-0.449 0.525-0.899 1.05-1.36 1.59-1.76 2.1-3.43 4.27-5.09 6.46-2.52 3.28-5.22 6.17-8.19 9.06-0.966 1.14-1.92 2.29-2.88 3.44-2.59 3.07-5.39 5.61-8.48 8.16-1.84 1.52-1.84 1.52-4.09 3.9-2.74 2.67-5.63 4.84-8.71 7.09-2.15 1.64-3.98 3.47-5.85 5.41-3.43 2.82-6.96 5.46-10.6 8.06-3.85 2.77-3.85 2.77-7.59 5.68-1.85 1.25-1.85 1.25-4.85 1.25-0.33 0.99-0.66 1.98-1 3-2.31 1.57-4.58 2.99-7 4.38-0.684 0.401-1.37 0.801-2.07 1.21-4.24 2.47-8.51 4.89-12.8 7.24-2.38 1.33-4.71 2.75-7.04 4.18-5.58 3.37-11.3 6.51-17.4 8.92-3.46 1.39-6.81 2.99-10.2 4.58-6.82 3.23-13.7 5.95-20.8 8.5-5.02 1.82-5.02 1.82-9.78 4.19-2.39 1-3.54 0.668-5.94-0.188 0.598-0.268 1.2-0.536 1.81-0.812 2.23-1.21 3.41-2.4 5.19-4.19 6.27-5.37 12.8-10.4 19.5-15.2 3.74-2.72 7.27-5.52 10.5-8.82 1.1-0.925 2.2-1.84 3.31-2.75 2.46-2.08 4.58-4.2 6.62-6.69 2.73-3.31 5.75-6.04 9.04-8.79 8.4-7.35 15.2-16.3 21.4-25.5 1.61-2.29 1.61-2.29 3.56-4.67 6.93-8.86 11.3-19.1 15-29.6 0.538-1.42 1.08-2.83 1.62-4.25 0.454-1.24 0.908-2.48 1.38-3.75 0.268-0.727 0.536-1.45 0.812-2.2 3.61-10.2 3.3-20.1 3.19-30.8-1.09-0.0376-1.09-0.0376-2.2-0.0759-3.35-0.118-6.7-0.24-10.1-0.362-1.14-0.0393-2.28-0.0786-3.45-0.119-21.2-0.782-21.2-0.782-29.9-3.69-2.39-0.755-4.74-1.27-7.2-1.75-3.59-0.754-6.07-2.03-9.19-4-2.32-0.708-4.65-1.38-7-2-0.66-0.33-1.32-0.66-2-1v-2c-0.846-0.0825-1.69-0.165-2.56-0.25-7.98-1.74-15.3-7.59-21.4-12.8v-2c-0.557-0.0619-1.11-0.124-1.69-0.188-4.18-1.47-6.65-4.96-9.31-8.38-1.89-2.5-1.89-2.5-4.32-4.2-3.03-2.54-5.24-5.35-7.49-8.55-0.429-0.608-0.859-1.22-1.3-1.84-6.6-9.55-12-19.9-15.9-30.8-0.348-0.942-0.696-1.88-1.05-2.86-8.48-23.9-8.53-53.3 0.0547-77.1 0.466-1.69 0.925-3.37 1.38-5.06 5.23-17.4 17.6-36.5 31.6-47.9 0.825-0.825 1.65-1.65 2.5-2.5 2.7-2.7 5.54-5.09 8.5-7.5 0.733-0.62 1.47-1.24 2.22-1.88 3.26-2.49 6.64-4.5 10.2-6.5 0.702-0.392 1.4-0.784 2.13-1.19 14.1-7.76 28.7-13.2 44.7-15 3.82-0.557 6.07-1.52 10.3-1.53z" fill="#5ba56f"/>
</svg>
