<svg width="173" height="50" viewBox="0 0 173 50" fill="none" xmlns="http://www.w3.org/2000/svg">
<g filter="url(#filter0_d_2_24)">
<path d="M37.1915 33.3405C37.1915 29.843 34.306 26.9575 30.8085 26.9575C27.311 26.9575 24.4255 29.843 24.4255 33.3405C24.4255 36.838 27.311 39.7235 30.8085 39.7235C34.306 39.7235 37.1915 36.838 37.1915 33.3405Z" fill="white"/>
<path d="M30.0185 21.8511C30.0185 21.8511 22.8566 21.8511 13.8816 21.8511C9.80204 21.8511 4 21.7575 4 28.7818V35.3378C4 41.5191 9.80204 41.4255 13.7909 41.4255H15.6947H22.766V32.6217C22.766 27.4706 26.6642 25.0355 30.6531 25.0355C35.4579 25.0355 38.5402 28.2198 38.5402 32.7154V41.4255H45.7021V28.7818C45.7021 21.7575 40.0814 21.8511 36.0019 21.8511C35.9112 21.8511 32.1943 21.8511 32.1036 21.8511H30.0185Z" fill="white"/>
<path d="M19.7743 20.1486C19.7743 20.1486 26.9362 20.1486 35.9112 20.1486C39.9001 20.1486 45.7021 20.2418 45.7021 13.1578V6.63302C45.7021 0.481089 39.9001 0.574299 35.9112 0.574299H34.0074H26.9362V9.24293C26.9362 14.3695 23.0379 16.793 19.049 16.793C14.2442 16.793 11.1619 13.6238 11.1619 9.14972V0.66751H4V13.251C4 20.2418 9.62072 20.1486 13.7003 20.1486C13.7909 20.1486 17.5079 20.1486 17.5985 20.1486H19.7743Z" fill="white"/>
<path d="M12.5106 8.65983C12.5106 12.1574 15.3961 15.0428 18.8936 15.0428C22.3911 15.0428 25.2766 12.1574 25.2766 8.65983C25.2766 5.16231 22.3911 2.27686 18.8936 2.27686C15.3961 2.27686 12.5106 5.16231 12.5106 8.65983Z" fill="white"/>
<path d="M66.0001 37.2953V39.1164V40.9375H169V37.2953H66.0001Z" fill="white"/>
<path d="M143.713 2L138.412 33.6531H161.878L162.773 28.321H145.696L147.139 19.7017H163.028L163.923 14.3696H148.027L149.207 7.35526H166.284L167.179 2H143.713Z" fill="white"/>
<path d="M139.407 10.6425C139.053 8.62077 138.335 6.91542 137.239 5.51873C136.151 4.12204 134.716 3.14976 132.956 2.60189C131.645 2.20063 129.669 2 127.03 2H115.347L112.515 18.9069L116.706 28.321H114.568L108.719 15.1952L102.854 2H96.6349L91.3413 33.6531H97.2753L100.732 13.0115L110.038 33.6531H122.084C124.445 33.6531 126.367 33.4294 127.848 32.9818C129.839 32.3799 131.475 31.5311 132.764 30.4585C134.469 29.0309 135.912 27.1635 137.085 24.864C138.049 22.9812 138.752 20.7357 139.184 18.1275C139.678 15.1644 139.755 12.6719 139.4 10.6425M131.004 23.6371C130.333 25.0569 129.608 26.0755 128.82 26.6928C128.033 27.3102 127.1 27.75 126.019 28.0124C125.194 28.2053 123.89 28.3133 122.099 28.3133H117.331L120.842 7.34754H123.712C126.313 7.34754 128.049 7.44786 128.905 7.64849C130.055 7.91085 130.958 8.40471 131.614 9.13777C132.27 9.87084 132.702 10.8971 132.91 12.2012C133.126 13.513 133.026 15.3881 132.617 17.8343C132.208 20.2804 131.668 22.2173 130.996 23.6294" fill="white"/>
<path d="M67.8213 33.6531L73.1148 2H94.8136L93.9185 7.35526H78.609L77.3589 14.848H90.5696L89.6745 20.2033H76.4638L74.2106 33.6531H67.8213Z" fill="white"/>
</g>
<defs>
<filter id="filter0_d_2_24" x="0" y="0.574219" width="173" height="48.8513" filterUnits="userSpaceOnUse" color-interpolation-filters="sRGB">
<feFlood flood-opacity="0" result="BackgroundImageFix"/>
<feColorMatrix in="SourceAlpha" type="matrix" values="0 0 0 0 0 0 0 0 0 0 0 0 0 0 0 0 0 0 127 0" result="hardAlpha"/>
<feOffset dy="4"/>
<feGaussianBlur stdDeviation="2"/>
<feComposite in2="hardAlpha" operator="out"/>
<feColorMatrix type="matrix" values="0 0 0 0 0 0 0 0 0 0 0 0 0 0 0 0 0 0 0.25 0"/>
<feBlend mode="normal" in2="BackgroundImageFix" result="effect1_dropShadow_2_24"/>
<feBlend mode="normal" in="SourceGraphic" in2="effect1_dropShadow_2_24" result="shape"/>
</filter>
</defs>
</svg>
