<svg width="34" height="33" viewBox="0 0 34 33" fill="none" xmlns="http://www.w3.org/2000/svg">
<path fill-rule="evenodd" clip-rule="evenodd" d="M32.8224 13.8653L16.6138 0L0.352179 13.9181C-0.07502 14.29 -0.119837 14.9378 0.252077 15.365C0.623992 15.7922 1.2718 15.837 1.699 15.4651L3.8966 13.5871V30.4858C3.8966 31.5053 4.72309 32.3318 5.74263 32.3318H11.1268C12.1794 32.3318 13.0422 31.5186 13.1209 30.4861H13.1267V30.3525L13.1268 30.3318V30.2807H13.1267L13.1267 22.0764H20.1006V30.4861H20.1065C20.1853 31.5186 21.048 32.3318 22.1007 32.3318H27.4848C28.5043 32.3318 29.3308 31.5053 29.3308 30.4858V13.5805L31.4756 15.4123C31.9028 15.7842 32.5506 15.7394 32.9225 15.3122C33.2944 14.885 33.2496 14.2372 32.8224 13.8653ZM27.2797 11.8288L16.6138 2.71955L5.94774 11.8343V30.2807H11.0755L11.0755 21.8713C11.0755 20.8517 11.902 20.0252 12.9215 20.0252L20.3057 20.0252C21.3252 20.0252 22.1517 20.8517 22.1517 21.8713V30.2807H27.2797V11.8288Z" fill="#F1F1F1"/>
</svg>
